{
    "asset" : {
        "generator" : "Khronos glTF Blender I/O v1.0.5",
        "version" : "2.0"
    },
    "scene" : 0,
    "scenes" : [
        {
            "name" : "Scene",
            "nodes" : [
                0,
                1,
                2,
                3,
                4
            ]
        }
    ],
    "nodes" : [
        {
            "name" : "SantaHat.001",
            "rotation" : [
                -0.09290050715208054,
                0.6115996837615967,
                0.007746432442218065,
                0.7856559753417969
            ],
            "scale" : [
                0.3982701003551483,
                0.3982700705528259,
                0.39827004075050354
            ],
            "translation" : [
                0,
                28.886993408203125,
                -6.085784912109375
            ]
        },
        {
            "name" : "SantaHat.002",
            "rotation" : [
                -0.09290047734975815,
                0.6115995049476624,
                0.007746400777250528,
                0.7856560945510864
            ],
            "scale" : [
                0.3982701599597931,
                0.3982701301574707,
                0.39826998114585876
            ],
            "translation" : [
                0,
                28.88698959350586,
                -6.085784912109375
            ]
        },
        {
            "name" : "SantaHat.003",
            "rotation" : [
                -0.09290050715208054,
                0.6115996837615967,
                0.007746432442218065,
                0.7856559753417969
            ],
            "scale" : [
                0.3982701003551483,
                0.3982700705528259,
                0.39827004075050354
            ],
            "translation" : [
                0,
                28.886993408203125,
                -6.085784912109375
            ]
        },
        {
            "name" : "Blank",
            "rotation" : [
                0.7071068286895752,
                0,
                0,
                0.7071067094802856
            ]
        },
        {
            "mesh" : 0,
            "name" : "Santa.001",
            "rotation" : [
                0.02183542586863041,
                -0.008886177092790604,
                -0.011241748929023743,
                0.9996588826179504
            ],
            "scale" : [
                0.07569959759712219,
                0.07569959759712219,
                0.07569960504770279
            ],
            "translation" : [
                -0.017330169677734375,
                0.04970049858093262,
                1.0040512084960938
            ]
        }
    ],
    "materials" : [
        {
            "doubleSided" : true,
            "name" : "12166_Santa_Claus_Glasses",
            "pbrMetallicRoughness" : {
                "baseColorFactor" : [
                    1,
                    0.694100022315979,
                    0,
                    1
                ],
                "metallicFactor" : 0,
                "roughnessFactor" : 0.7113248705863953
            }
        },
        {
            "doubleSided" : true,
            "name" : "12166_Santa_Claus_Bag",
            "pbrMetallicRoughness" : {
                "baseColorTexture" : {
                    "index" : 0,
                    "texCoord" : 0
                },
                "metallicFactor" : 0,
                "roughnessFactor" : 0.850928783416748
            }
        },
        {
            "doubleSided" : true,
            "name" : "12166_Santa_Claus_Head",
            "pbrMetallicRoughness" : {
                "baseColorTexture" : {
                    "index" : 1,
                    "texCoord" : 0
                },
                "metallicFactor" : 0,
                "roughnessFactor" : 0.850928783416748
            }
        },
        {
            "doubleSided" : true,
            "name" : "12166_Santa_Claus_Gloves",
            "pbrMetallicRoughness" : {
                "baseColorTexture" : {
                    "index" : 2,
                    "texCoord" : 0
                },
                "metallicFactor" : 0,
                "roughnessFactor" : 0.850928783416748
            }
        },
        {
            "doubleSided" : true,
            "name" : "12166_Santa_Claus_Body",
            "pbrMetallicRoughness" : {
                "baseColorTexture" : {
                    "index" : 3,
                    "texCoord" : 0
                },
                "metallicFactor" : 0,
                "roughnessFactor" : 0.850928783416748
            }
        },
        {
            "doubleSided" : true,
            "name" : "12166_Santa_Claus_BodyMetal",
            "pbrMetallicRoughness" : {
                "baseColorTexture" : {
                    "index" : 4,
                    "texCoord" : 0
                },
                "metallicFactor" : 0,
                "roughnessFactor" : 0.7113248705863953
            }
        }
    ],
    "meshes" : [
        {
            "name" : "Santa",
            "primitives" : [
                {
                    "attributes" : {
                        "POSITION" : 0,
                        "NORMAL" : 1,
                        "TEXCOORD_0" : 2
                    },
                    "indices" : 3,
                    "material" : 0
                },
                {
                    "attributes" : {
                        "POSITION" : 4,
                        "NORMAL" : 5,
                        "TEXCOORD_0" : 6
                    },
                    "indices" : 7,
                    "material" : 1
                },
                {
                    "attributes" : {
                        "POSITION" : 8,
                        "NORMAL" : 9,
                        "TEXCOORD_0" : 10
                    },
                    "indices" : 11,
                    "material" : 2
                },
                {
                    "attributes" : {
                        "POSITION" : 12,
                        "NORMAL" : 13,
                        "TEXCOORD_0" : 14
                    },
                    "indices" : 15,
                    "material" : 3
                },
                {
                    "attributes" : {
                        "POSITION" : 16,
                        "NORMAL" : 17,
                        "TEXCOORD_0" : 18
                    },
                    "indices" : 19,
                    "material" : 4
                },
                {
                    "attributes" : {
                        "POSITION" : 20,
                        "NORMAL" : 21,
                        "TEXCOORD_0" : 22
                    },
                    "indices" : 23,
                    "material" : 5
                }
            ]
        }
    ],
    "textures" : [
        {
            "source" : 0
        },
        {
            "source" : 1
        },
        {
            "source" : 2
        },
        {
            "source" : 3
        },
        {
            "source" : 3
        }
    ],
    "images" : [
        {
            "bufferView" : 8,
            "mimeType" : "image/jpeg",
            "name" : "SantaBagDiff"
        },
        {
            "bufferView" : 13,
            "mimeType" : "image/jpeg",
            "name" : "SantaBagHead"
        },
        {
            "bufferView" : 18,
            "mimeType" : "image/jpeg",
            "name" : "SantaGlovesHead"
        },
        {
            "bufferView" : 23,
            "mimeType" : "image/jpeg",
            "name" : "SantaBodyDiff"
        }
    ],
    "accessors" : [
        {
            "bufferView" : 0,
            "componentType" : 5126,
            "count" : 7078,
            "max" : [
                16.65089988708496,
                167.8072052001953,
                -5.7906999588012695
            ],
            "min" : [
                -7.44320011138916,
                162.51980590820312,
                -27.411699295043945
            ],
            "type" : "VEC3"
        },
        {
            "bufferView" : 1,
            "componentType" : 5126,
            "count" : 7078,
            "type" : "VEC3"
        },
        {
            "bufferView" : 2,
            "componentType" : 5126,
            "count" : 7078,
            "type" : "VEC2"
        },
        {
            "bufferView" : 3,
            "componentType" : 5123,
            "count" : 32592,
            "type" : "SCALAR"
        },
        {
            "bufferView" : 4,
            "componentType" : 5126,
            "count" : 1690,
            "max" : [
                6.770699977874756,
                151.0531005859375,
                7.624300003051758
            ],
            "min" : [
                -38.36280059814453,
                73.62889862060547,
                -71.46890258789062
            ],
            "type" : "VEC3"
        },
        {
            "bufferView" : 5,
            "componentType" : 5126,
            "count" : 1690,
            "type" : "VEC3"
        },
        {
            "bufferView" : 6,
            "componentType" : 5126,
            "count" : 1690,
            "type" : "VEC2"
        },
        {
            "bufferView" : 7,
            "componentType" : 5123,
            "count" : 9336,
            "type" : "SCALAR"
        },
        {
            "bufferView" : 9,
            "componentType" : 5126,
            "count" : 4475,
            "max" : [
                19.12310028076172,
                180.82009887695312,
                -4.821000099182129
            ],
            "min" : [
                -11.61709976196289,
                139.62539672851562,
                -36.93619918823242
            ],
            "type" : "VEC3"
        },
        {
            "bufferView" : 10,
            "componentType" : 5126,
            "count" : 4475,
            "type" : "VEC3"
        },
        {
            "bufferView" : 11,
            "componentType" : 5126,
            "count" : 4475,
            "type" : "VEC2"
        },
        {
            "bufferView" : 12,
            "componentType" : 5123,
            "count" : 25932,
            "type" : "SCALAR"
        },
        {
            "bufferView" : 14,
            "componentType" : 5126,
            "count" : 2930,
            "max" : [
                66.25440216064453,
                211.31179809570312,
                8.355199813842773
            ],
            "min" : [
                -28.160200119018555,
                119.93810272216797,
                -26.767099380493164
            ],
            "type" : "VEC3"
        },
        {
            "bufferView" : 15,
            "componentType" : 5126,
            "count" : 2930,
            "type" : "VEC3"
        },
        {
            "bufferView" : 16,
            "componentType" : 5126,
            "count" : 2930,
            "type" : "VEC2"
        },
        {
            "bufferView" : 17,
            "componentType" : 5123,
            "count" : 15264,
            "type" : "SCALAR"
        },
        {
            "bufferView" : 19,
            "componentType" : 5126,
            "count" : 13240,
            "max" : [
                66.20330047607422,
                191.2718963623047,
                15.160699844360352
            ],
            "min" : [
                -38.83660125732422,
                -0.2619999945163727,
                -41.796600341796875
            ],
            "type" : "VEC3"
        },
        {
            "bufferView" : 20,
            "componentType" : 5126,
            "count" : 13240,
            "type" : "VEC3"
        },
        {
            "bufferView" : 21,
            "componentType" : 5126,
            "count" : 13240,
            "type" : "VEC2"
        },
        {
            "bufferView" : 22,
            "componentType" : 5123,
            "count" : 68988,
            "type" : "SCALAR"
        },
        {
            "bufferView" : 24,
            "componentType" : 5126,
            "count" : 2998,
            "max" : [
                11.699700355529785,
                132.97479248046875,
                12.753800392150879
            ],
            "min" : [
                -2.982100009918213,
                93.63310241699219,
                -2.508500099182129
            ],
            "type" : "VEC3"
        },
        {
            "bufferView" : 25,
            "componentType" : 5126,
            "count" : 2998,
            "type" : "VEC3"
        },
        {
            "bufferView" : 26,
            "componentType" : 5126,
            "count" : 2998,
            "type" : "VEC2"
        },
        {
            "bufferView" : 27,
            "componentType" : 5123,
            "count" : 16140,
            "type" : "SCALAR"
        }
    ],
    "bufferViews" : [
        {
            "buffer" : 0,
            "byteLength" : 84936,
            "byteOffset" : 0
        },
        {
            "buffer" : 0,
            "byteLength" : 84936,
            "byteOffset" : 84936
        },
        {
            "buffer" : 0,
            "byteLength" : 56624,
            "byteOffset" : 169872
        },
        {
            "buffer" : 0,
            "byteLength" : 65184,
            "byteOffset" : 226496
        },
        {
            "buffer" : 0,
            "byteLength" : 20280,
            "byteOffset" : 291680
        },
        {
            "buffer" : 0,
            "byteLength" : 20280,
            "byteOffset" : 311960
        },
        {
            "buffer" : 0,
            "byteLength" : 13520,
            "byteOffset" : 332240
        },
        {
            "buffer" : 0,
            "byteLength" : 18672,
            "byteOffset" : 345760
        },
        {
            "buffer" : 0,
            "byteLength" : 293997,
            "byteOffset" : 364432
        },
        {
            "buffer" : 0,
            "byteLength" : 53700,
            "byteOffset" : 658432
        },
        {
            "buffer" : 0,
            "byteLength" : 53700,
            "byteOffset" : 712132
        },
        {
            "buffer" : 0,
            "byteLength" : 35800,
            "byteOffset" : 765832
        },
        {
            "buffer" : 0,
            "byteLength" : 51864,
            "byteOffset" : 801632
        },
        {
            "buffer" : 0,
            "byteLength" : 55410,
            "byteOffset" : 853496
        },
        {
            "buffer" : 0,
            "byteLength" : 35160,
            "byteOffset" : 908908
        },
        {
            "buffer" : 0,
            "byteLength" : 35160,
            "byteOffset" : 944068
        },
        {
            "buffer" : 0,
            "byteLength" : 23440,
            "byteOffset" : 979228
        },
        {
            "buffer" : 0,
            "byteLength" : 30528,
            "byteOffset" : 1002668
        },
        {
            "buffer" : 0,
            "byteLength" : 319470,
            "byteOffset" : 1033196
        },
        {
            "buffer" : 0,
            "byteLength" : 158880,
            "byteOffset" : 1352668
        },
        {
            "buffer" : 0,
            "byteLength" : 158880,
            "byteOffset" : 1511548
        },
        {
            "buffer" : 0,
            "byteLength" : 105920,
            "byteOffset" : 1670428
        },
        {
            "buffer" : 0,
            "byteLength" : 137976,
            "byteOffset" : 1776348
        },
        {
            "buffer" : 0,
            "byteLength" : 113124,
            "byteOffset" : 1914324
        },
        {
            "buffer" : 0,
            "byteLength" : 35976,
            "byteOffset" : 2027448
        },
        {
            "buffer" : 0,
            "byteLength" : 35976,
            "byteOffset" : 2063424
        },
        {
            "buffer" : 0,
            "byteLength" : 23984,
            "byteOffset" : 2099400
        },
        {
            "buffer" : 0,
            "byteLength" : 32280,
            "byteOffset" : 2123384
        }
    ],
    "buffers" : [
        {
            "byteLength" : 2155664,
            "uri" : "data:application/octet-stream;base64,"
        }
    ]
}
